<svg id="Capa_1" enable-background="new 0 0 512 512" height="512" viewBox="0 0 512 512" width="512" xmlns="http://www.w3.org/2000/svg"><g><path d="m256 0c-82.705 0-150 67.295-150 150s67.295 151 150 151 150-68.295 150-151-67.295-150-150-150z" fill="#ffe1ba"/><path d="m406 150c0-82.705-67.295-150-150-150v301c82.705 0 150-68.295 150-151z" fill="#ffbfab"/><g><path d="m206.605 124.395c-5.859-5.859-15.352-5.859-21.211 0s-15.352 5.859-21.211 0-5.859-15.352 0-21.211c17.549-17.549 46.084-17.549 63.633 0 5.859 5.859 5.859 15.352 0 21.211s-15.351 5.859-21.211 0z" fill="#465a61"/></g><path d="m497 166c-24.853 0-45 20.147-45 45v82.192l-63.3 100.269-32.739-49.116c-8.892-13.301-28.33-17.183-41.602-8.306-13.755 9.155-17.49 27.817-8.32 41.602l54.961 82.441v36.918c0 8.291 6.709 15 15 15h91c8.291 0 15-6.709 15-15v-23.896c14.439-61.087 22.089-88.971 26.083-110.377 2.399-12.858 3.478-23.378 3.917-37.352v-144.375c0-8.286-6.716-15-15-15z" fill="#ffbfab"/><path d="m15 166c24.853 0 45 20.147 45 45v82.192l63.3 100.269 32.739-49.116c8.892-13.301 28.33-17.183 41.602-8.306 13.755 9.155 17.49 27.817 8.32 41.602l-54.961 82.441v36.918c0 8.291-6.709 15-15 15h-91c-8.291 0-15-6.709-15-15v-23.896c-14.439-61.086-22.089-88.971-26.083-110.377-2.399-12.857-3.478-23.378-3.917-37.352v-144.375c0-8.286 6.716-15 15-15z" fill="#ffe1ba"/><path d="m301 165h-45-45c-8.291 0-15 6.709-15 15 0 33.091 26.909 61 60 61s60-27.909 60-61c0-8.291-6.709-15-15-15z" fill="#ff7d43"/><path d="m316 180c0-8.291-6.709-15-15-15h-45v76c33.091 0 60-27.909 60-61z" fill="#ff4b00"/><path d="m271 45c0 8.276-6.724 15-15 15-8.291 0-15 6.709-15 15s6.709 15 15 15c24.814 0 45-20.186 45-45s-20.186-45-45-45c-8.291 0-15 6.709-15 15s6.709 15 15 15c8.276 0 15 6.724 15 15z" fill="#f8bb5e"/><path d="m301 45c0-24.814-20.186-45-45-45v30c8.276 0 15 6.724 15 15s-6.724 15-15 15v30c24.814 0 45-20.186 45-45z" fill="#ff9f00"/><g><path d="m326.605 124.395c-5.859-5.859-15.352-5.859-21.211 0s-15.352 5.859-21.211 0-5.859-15.352 0-21.211c17.549-17.549 46.084-17.549 63.633 0 5.859 5.859 5.859 15.352 0 21.211s-15.351 5.859-21.211 0z" fill="#3b4a51"/></g></g></svg>